<?xml version="1.0" standalone="no"?>
<!DOCTYPE svg PUBLIC "-//W3C//DTD SVG 20010904//EN"
 "http://www.w3.org/TR/2001/REC-SVG-20010904/DTD/svg10.dtd">
<svg version="1.0" xmlns="http://www.w3.org/2000/svg"
 width="512.000000pt" height="512.000000pt" viewBox="0 0 512.000000 512.000000"
 preserveAspectRatio="xMidYMid meet">
<metadata>
Created by potrace 1.14, written by Peter Selinger 2001-2017
</metadata>
<g transform="translate(0.000000,512.000000) scale(0.100000,-0.100000)"
fill="#000000" stroke="none">
<path d="M0 2560 l0 -2560 2560 0 2560 0 0 2560 0 2560 -2560 0 -2560 0 0
-2560z m1959 929 c47 -28 68 -56 81 -107 23 -90 21 -92 -359 -474 l-345 -348
345 -347 c380 -383 382 -385 359 -475 -13 -51 -34 -79 -81 -107 -41 -25 -107
-27 -153 -6 -42 20 -852 832 -865 868 -15 40 -13 104 4 140 18 39 818 840 860
861 43 23 113 20 154 -5z m1355 6 c42 -20 852 -832 865 -868 20 -52 13 -110
-18 -158 -39 -61 -819 -835 -854 -848 -131 -49 -262 67 -227 200 10 39 52 84
358 392 l346 347 -346 348 c-307 308 -348 352 -358 391 -28 106 51 211 158
211 24 0 58 -7 76 -15z"/>
</g>
</svg>
